# xmcd
#
# Track frame offsets:
#	150
#	23432
#	41483
#	59554
#	79697
#	100016
#	126845
#	146205
#	163303
#	189006
#	208457
#	228780
#	252240
#	269932
#	290372
#
# Disc length: 4251 seconds
#
# Revision: 0
# Processed by: cddbd v1.5.2PL0 Copyright (c) Steve Scherf et al.
# Submitted via: EasyCDDAExtractor 10.0.2.1
#
DISCID=db10990f
DTITLE=Various Artist - Soul Desirables
DYEAR=2007
DGENRE=Soul
TTITLE0=Luther Vandross - Bad Company
TTITLE1=Sara Devine - Dance
TTITLE2=Lathun feat India Arie - When Love Came In
TTITLE3=Ronee Martin - It's Good To Be Loved
TTITLE4=K Fox - For Goodness Sake
TTITLE5=Donnie - Cloud 9 (DJ Spinna Mix)
TTITLE6=Bridgette McWilliams - Can't Get Over You
TTITLE7=Tiffany - Tell Me
TTITLE8=Donald McCollum - No Matter What I'll Do
TTITLE9=Mica Paris - Sixth Street
TTITLE10=Kenny Lattimore - Days Like This (Black Sand Mix)
TTITLE11=Amel Larrieux - Sweet Misery
TTITLE12=Incognito - Where Did We Go Wrong (So Right Mix)
TTITLE13=Trina Broussard - Dreamin' Of One (Good Love)
TTITLE14=Jack Herrera - For You
EXTD=
EXTT0=
EXTT1=
EXTT2=
EXTT3=
EXTT4=
EXTT5=
EXTT6=
EXTT7=
EXTT8=
EXTT9=
EXTT10=
EXTT11=
EXTT12=
EXTT13=
EXTT14=
PLAYORDER=
